<?xml version="1.0" encoding="iso-8859-1"?>
<!-- Generator: Adobe Illustrator 19.0.0, SVG Export Plug-In . SVG Version: 6.00 Build 0)  -->
<svg version="1.1" id="Capa_1" xmlns="http://www.w3.org/2000/svg" xmlns:xlink="http://www.w3.org/1999/xlink" x="0px" y="0px"
	 viewBox="0 0 192.853 192.853" style="enable-background:new 0 0 192.853 192.853;" xml:space="preserve">
<circle style="fill:#2ABBE9;" cx="96.427" cy="96.427" r="93.013"/>
<path d="M96.427,192.853C43.257,192.853,0,149.596,0,96.427S43.257,0,96.427,0s96.427,43.257,96.427,96.427
	S149.596,192.853,96.427,192.853z M96.427,6.827c-49.405,0-89.6,40.194-89.6,89.6s40.195,89.6,89.6,89.6s89.6-40.194,89.6-89.6
	S145.831,6.827,96.427,6.827z"/>
<path style="fill:#84D839;" d="M7.105,70.496c8.011,1.696,15.517,4.299,17.502,8.269c4.709,9.419,14.129,9.419,23.549,0
	c9.419-9.419,23.549-18.838,9.419-32.966c-7.05-7.05-9.368-18.683-9.923-28.571C28.247,29.204,13.592,48.111,7.105,70.496z"/>
<path d="M34.587,89.24c-0.734,0-1.457-0.056-2.169-0.174c-3.217-0.521-7.712-2.466-10.865-8.774
	c-0.425-0.85-2.78-3.837-15.157-6.456c-0.928-0.196-1.734-0.77-2.222-1.587c-0.486-0.814-0.614-1.794-0.35-2.703
	c6.665-22.997,21.593-42.61,42.035-55.219c1.022-0.637,2.301-0.676,3.372-0.123c1.067,0.556,1.76,1.633,1.828,2.836
	c0.471,8.417,2.401,19.823,8.926,26.348c4.767,4.767,7.049,9.457,6.975,14.339c-0.119,8.064-6.862,14.409-12.809,20.011
	c-1.225,1.154-2.442,2.301-3.587,3.444C45.309,86.439,39.716,89.24,34.587,89.24z M11.455,68c9.028,2.29,14.213,5.26,16.203,9.24
	c1.495,2.99,3.465,4.7,5.854,5.089c3.41,0.556,7.875-1.62,12.228-5.977c1.191-1.193,2.456-2.382,3.734-3.587
	c5.204-4.9,10.585-9.967,10.663-15.143c0.043-2.941-1.584-6.016-4.977-9.411c-5.531-5.53-9.02-13.916-10.4-24.984
	C29.15,34.249,17.504,49.889,11.455,68z"/>
<path style="fill:#84D839;" d="M71.702,168.247c0,0,9.419-28.257,0-32.966c-9.419-4.709-18.838,0-23.547-14.128
	c-4.709-14.128,0-18.838,14.128-23.547c14.128-4.71,32.966,0,37.676,18.838c4.709,18.838-4.71,28.257-9.419,47.095
	C87.113,177.244,71.702,168.247,71.702,168.247z"/>
<path d="M81.567,174.563c-5.61,0-10.849-2.941-11.585-3.371c-1.394-0.814-2.028-2.493-1.519-4.026
	c3.55-10.67,6.12-26.631,1.712-28.834c-2.604-1.304-5.253-1.77-8.057-2.263c-6.27-1.103-13.375-2.357-17.203-13.836
	c-5.629-16.889,1.71-23.009,16.288-27.866c9.315-3.099,19.666-2.326,27.701,2.087c7.26,3.987,12.228,10.614,14.365,19.164
	c3.465,13.856-0.254,23.32-4.193,33.34c-1.853,4.714-3.77,9.586-5.226,15.406c-1.434,5.733-4.69,8.18-7.168,9.226
	C85.021,174.29,83.277,174.563,81.567,174.563z M71.702,168.247h0.034H71.702z M75.846,166.436c2.425,0.963,5.842,1.86,8.197,0.857
	c0.563-0.241,2.282-0.966,3.185-4.584c1.563-6.253,3.652-11.566,5.495-16.253c3.831-9.747,6.859-17.447,3.924-29.187
	c-1.664-6.656-5.477-11.783-11.027-14.833c-6.398-3.511-14.718-4.11-22.257-1.597c-13.606,4.536-15.732,7.95-11.972,19.234
	c2.541,7.624,6.069,8.243,11.911,9.274c3.016,0.531,6.432,1.133,9.926,2.881C83.261,137.243,78.391,157.85,75.846,166.436z"/>
<path style="fill:#84D839;" d="M144.556,16.821c-14.056,13.745-29.334,30.927-21.05,33.688c14.128,4.709,23.549,9.419,23.549,9.419
	s-4.709,14.13-18.838,14.13c-14.128,0-32.966,0-32.966,4.709c0,4.709,28.257,23.549,28.257,28.257
	c0,4.709,6.089,24.928,9.419,28.257c4.709,4.709,18.838,9.419,23.549-9.419c4.709-18.838,0-32.966,9.419-37.676
	c5.265-2.633,12-15.447,16.918-26.238C175.27,43.071,161.746,27.237,144.556,16.821z"/>
<path d="M143.183,142.909c-5.093,0-9.892-2.437-12.672-5.217c-4.164-4.163-10.112-24.474-10.407-30.254
	c-1.13-2.103-8.195-7.994-12.911-11.923c-11.145-9.286-15.357-13.136-15.357-16.749c0-7.323,11.65-8.124,36.379-8.124
	c7.975,0,12.36-5.581,14.321-9.066c-3.802-1.72-10.981-4.787-20.108-7.827c-2.381-0.797-3.975-2.476-4.495-4.736
	c-0.957-4.154,0.935-11.846,24.236-34.633c1.111-1.087,2.823-1.283,4.156-0.48c17.84,10.81,31.923,27.423,39.654,46.78
	c0.345,0.867,0.321,1.833-0.063,2.683c-10.999,24.127-16.645,26.947-18.5,27.873c-3.886,1.944-4.371,6.68-4.949,15.584
	c-0.36,5.513-0.809,12.373-2.681,19.867c-2.708,10.837-8.332,14.51-12.571,15.683C145.87,142.744,144.517,142.909,143.183,142.909z
	 M99.311,79.276c2.154,2.58,8.108,7.543,12.252,10.996c11.145,9.286,15.357,13.136,15.357,16.749c0,4.236,5.924,23.32,8.419,25.844
	c1.855,1.857,6.195,3.983,10.052,2.927c4.514-1.249,6.717-6.543,7.772-10.761c1.725-6.897,2.132-13.146,2.492-18.661
	c0.611-9.366,1.14-17.457,8.711-21.243c1.227-0.613,5.85-4.087,14.725-23.264c-6.951-16.597-18.951-30.933-34.06-40.723
	c-19.05,18.924-20.412,24.914-20.456,26.107c14.29,4.794,23.617,9.426,24.008,9.624c1.519,0.759,2.248,2.521,1.712,4.134
	c-0.225,0.671-5.676,16.463-22.077,16.463C120.148,77.471,104.113,77.471,99.311,79.276z M124.585,47.483h0.036H124.585z"/>
<g>
</g>
<g>
</g>
<g>
</g>
<g>
</g>
<g>
</g>
<g>
</g>
<g>
</g>
<g>
</g>
<g>
</g>
<g>
</g>
<g>
</g>
<g>
</g>
<g>
</g>
<g>
</g>
<g>
</g>
</svg>
